<mxfile host="app.diagrams.net" agent="Mozilla/5.0 (Windows NT 10.0; Win64; x64; rv:144.0) Gecko/20100101 Firefox/144.0" version="27.2.0">
  <diagram id="C5RBs43oDa-KdzZeNtuy" name="Page-1">
    <mxGraphModel dx="655" dy="939" grid="1" gridSize="10" guides="1" tooltips="1" connect="1" arrows="1" fold="1" page="1" pageScale="1" pageWidth="827" pageHeight="1169" math="0" shadow="0">
      <root>
        <mxCell id="WIyWlLk6GJQsqaUBKTNV-0" />
        <mxCell id="WIyWlLk6GJQsqaUBKTNV-1" parent="WIyWlLk6GJQsqaUBKTNV-0" />
        <mxCell id="WIyWlLk6GJQsqaUBKTNV-2" value="" style="rounded=0;html=1;jettySize=auto;orthogonalLoop=1;fontSize=11;endArrow=block;endFill=0;endSize=8;strokeWidth=1;shadow=0;labelBackgroundColor=none;edgeStyle=orthogonalEdgeStyle;" parent="WIyWlLk6GJQsqaUBKTNV-1" source="WIyWlLk6GJQsqaUBKTNV-3" target="WIyWlLk6GJQsqaUBKTNV-6" edge="1">
          <mxGeometry relative="1" as="geometry" />
        </mxCell>
        <mxCell id="WIyWlLk6GJQsqaUBKTNV-3" value="Get control rod insertion percentage (Console.ReadLine()" style="rounded=1;whiteSpace=wrap;html=1;fontSize=12;glass=0;strokeWidth=1;shadow=0;" parent="WIyWlLk6GJQsqaUBKTNV-1" vertex="1">
          <mxGeometry x="227.5" y="150" width="150" height="60" as="geometry" />
        </mxCell>
        <mxCell id="WIyWlLk6GJQsqaUBKTNV-4" value="" style="rounded=0;html=1;jettySize=auto;orthogonalLoop=1;fontSize=11;endArrow=block;endFill=0;endSize=8;strokeWidth=1;shadow=0;labelBackgroundColor=none;edgeStyle=orthogonalEdgeStyle;" parent="WIyWlLk6GJQsqaUBKTNV-1" source="WIyWlLk6GJQsqaUBKTNV-6" target="WIyWlLk6GJQsqaUBKTNV-10" edge="1">
          <mxGeometry relative="1" as="geometry">
            <mxPoint as="offset" />
          </mxGeometry>
        </mxCell>
        <mxCell id="_rAQOsv1yq8Gpdm-g4A3-31" value="No" style="edgeLabel;html=1;align=center;verticalAlign=middle;resizable=0;points=[];" vertex="1" connectable="0" parent="WIyWlLk6GJQsqaUBKTNV-4">
          <mxGeometry x="-0.0222" y="-2" relative="1" as="geometry">
            <mxPoint as="offset" />
          </mxGeometry>
        </mxCell>
        <mxCell id="WIyWlLk6GJQsqaUBKTNV-5" value="" style="edgeStyle=orthogonalEdgeStyle;rounded=0;html=1;jettySize=auto;orthogonalLoop=1;fontSize=11;endArrow=block;endFill=0;endSize=8;strokeWidth=1;shadow=0;labelBackgroundColor=none;" parent="WIyWlLk6GJQsqaUBKTNV-1" source="WIyWlLk6GJQsqaUBKTNV-6" target="WIyWlLk6GJQsqaUBKTNV-7" edge="1">
          <mxGeometry y="10" relative="1" as="geometry">
            <mxPoint as="offset" />
          </mxGeometry>
        </mxCell>
        <mxCell id="_rAQOsv1yq8Gpdm-g4A3-32" value="Yes" style="edgeLabel;html=1;align=center;verticalAlign=middle;resizable=0;points=[];" vertex="1" connectable="0" parent="WIyWlLk6GJQsqaUBKTNV-5">
          <mxGeometry x="-0.0115" y="3" relative="1" as="geometry">
            <mxPoint as="offset" />
          </mxGeometry>
        </mxCell>
        <mxCell id="WIyWlLk6GJQsqaUBKTNV-6" value="Did user input &quot;x&quot; ?" style="rhombus;whiteSpace=wrap;html=1;shadow=0;fontFamily=Helvetica;fontSize=12;align=center;strokeWidth=1;spacing=6;spacingTop=-4;" parent="WIyWlLk6GJQsqaUBKTNV-1" vertex="1">
          <mxGeometry x="227.5" y="240" width="150" height="100" as="geometry" />
        </mxCell>
        <mxCell id="WIyWlLk6GJQsqaUBKTNV-7" value="&lt;div&gt;Exit Loop&lt;/div&gt;&lt;div&gt;End Program&lt;/div&gt;" style="rounded=1;whiteSpace=wrap;html=1;fontSize=12;glass=0;strokeWidth=1;shadow=0;" parent="WIyWlLk6GJQsqaUBKTNV-1" vertex="1">
          <mxGeometry x="450" y="270" width="120" height="40" as="geometry" />
        </mxCell>
        <mxCell id="WIyWlLk6GJQsqaUBKTNV-9" value="" style="edgeStyle=orthogonalEdgeStyle;rounded=0;html=1;jettySize=auto;orthogonalLoop=1;fontSize=11;endArrow=block;endFill=0;endSize=8;strokeWidth=1;shadow=0;labelBackgroundColor=none;" parent="WIyWlLk6GJQsqaUBKTNV-1" source="WIyWlLk6GJQsqaUBKTNV-10" target="WIyWlLk6GJQsqaUBKTNV-12" edge="1">
          <mxGeometry x="0.0115" y="10" relative="1" as="geometry">
            <mxPoint as="offset" />
          </mxGeometry>
        </mxCell>
        <mxCell id="_rAQOsv1yq8Gpdm-g4A3-30" value="&lt;div&gt;No&lt;/div&gt;" style="edgeLabel;html=1;align=center;verticalAlign=middle;resizable=0;points=[];" vertex="1" connectable="0" parent="WIyWlLk6GJQsqaUBKTNV-9">
          <mxGeometry x="0.0115" y="1" relative="1" as="geometry">
            <mxPoint as="offset" />
          </mxGeometry>
        </mxCell>
        <mxCell id="_rAQOsv1yq8Gpdm-g4A3-13" value="" style="edgeStyle=orthogonalEdgeStyle;rounded=0;orthogonalLoop=1;jettySize=auto;html=1;" edge="1" parent="WIyWlLk6GJQsqaUBKTNV-1" source="WIyWlLk6GJQsqaUBKTNV-10" target="_rAQOsv1yq8Gpdm-g4A3-12">
          <mxGeometry relative="1" as="geometry" />
        </mxCell>
        <mxCell id="_rAQOsv1yq8Gpdm-g4A3-14" value="Yes" style="edgeLabel;html=1;align=center;verticalAlign=middle;resizable=0;points=[];" vertex="1" connectable="0" parent="_rAQOsv1yq8Gpdm-g4A3-13">
          <mxGeometry x="-0.0801" y="1" relative="1" as="geometry">
            <mxPoint x="-1" as="offset" />
          </mxGeometry>
        </mxCell>
        <mxCell id="WIyWlLk6GJQsqaUBKTNV-10" value="&lt;div&gt;Did user input&lt;/div&gt;&lt;div&gt;&amp;nbsp;an integer&amp;nbsp;&lt;/div&gt;&lt;div&gt;that is 0-100?&lt;/div&gt;" style="rhombus;whiteSpace=wrap;html=1;shadow=0;fontFamily=Helvetica;fontSize=12;align=center;strokeWidth=1;spacing=6;spacingTop=-4;" parent="WIyWlLk6GJQsqaUBKTNV-1" vertex="1">
          <mxGeometry x="227.5" y="400" width="150" height="100" as="geometry" />
        </mxCell>
        <mxCell id="_rAQOsv1yq8Gpdm-g4A3-4" style="edgeStyle=orthogonalEdgeStyle;rounded=0;orthogonalLoop=1;jettySize=auto;html=1;exitX=1;exitY=0.5;exitDx=0;exitDy=0;entryX=1;entryY=0.5;entryDx=0;entryDy=0;" edge="1" parent="WIyWlLk6GJQsqaUBKTNV-1" source="WIyWlLk6GJQsqaUBKTNV-12" target="WIyWlLk6GJQsqaUBKTNV-3">
          <mxGeometry relative="1" as="geometry">
            <Array as="points">
              <mxPoint x="640" y="450" />
              <mxPoint x="640" y="180" />
            </Array>
          </mxGeometry>
        </mxCell>
        <mxCell id="WIyWlLk6GJQsqaUBKTNV-12" value="Display Error Msg and repeat loop" style="rounded=1;whiteSpace=wrap;html=1;fontSize=12;glass=0;strokeWidth=1;shadow=0;" parent="WIyWlLk6GJQsqaUBKTNV-1" vertex="1">
          <mxGeometry x="450" y="430" width="120" height="40" as="geometry" />
        </mxCell>
        <mxCell id="_rAQOsv1yq8Gpdm-g4A3-3" style="edgeStyle=orthogonalEdgeStyle;rounded=0;orthogonalLoop=1;jettySize=auto;html=1;exitX=0.5;exitY=1;exitDx=0;exitDy=0;exitPerimeter=0;entryX=0.5;entryY=0;entryDx=0;entryDy=0;" edge="1" parent="WIyWlLk6GJQsqaUBKTNV-1" source="_rAQOsv1yq8Gpdm-g4A3-2" target="WIyWlLk6GJQsqaUBKTNV-3">
          <mxGeometry relative="1" as="geometry" />
        </mxCell>
        <mxCell id="_rAQOsv1yq8Gpdm-g4A3-2" value="Start" style="strokeWidth=2;html=1;shape=mxgraph.flowchart.merge_or_storage;whiteSpace=wrap;" vertex="1" parent="WIyWlLk6GJQsqaUBKTNV-1">
          <mxGeometry x="255" y="70" width="95" height="60" as="geometry" />
        </mxCell>
        <mxCell id="_rAQOsv1yq8Gpdm-g4A3-16" value="" style="edgeStyle=orthogonalEdgeStyle;rounded=0;orthogonalLoop=1;jettySize=auto;html=1;" edge="1" parent="WIyWlLk6GJQsqaUBKTNV-1" source="_rAQOsv1yq8Gpdm-g4A3-12" target="_rAQOsv1yq8Gpdm-g4A3-15">
          <mxGeometry relative="1" as="geometry" />
        </mxCell>
        <mxCell id="_rAQOsv1yq8Gpdm-g4A3-12" value="&lt;div&gt;Calculate&lt;/div&gt;&lt;div&gt;Neutron Multiplication Factor (k-eff)&lt;/div&gt;" style="whiteSpace=wrap;html=1;shadow=0;strokeWidth=1;spacing=6;spacingTop=-4;" vertex="1" parent="WIyWlLk6GJQsqaUBKTNV-1">
          <mxGeometry x="233.75" y="570" width="137.5" height="60" as="geometry" />
        </mxCell>
        <mxCell id="_rAQOsv1yq8Gpdm-g4A3-25" style="edgeStyle=orthogonalEdgeStyle;rounded=0;orthogonalLoop=1;jettySize=auto;html=1;exitX=0.5;exitY=1;exitDx=0;exitDy=0;entryX=0.5;entryY=0;entryDx=0;entryDy=0;" edge="1" parent="WIyWlLk6GJQsqaUBKTNV-1" source="_rAQOsv1yq8Gpdm-g4A3-15" target="_rAQOsv1yq8Gpdm-g4A3-20">
          <mxGeometry relative="1" as="geometry" />
        </mxCell>
        <mxCell id="_rAQOsv1yq8Gpdm-g4A3-15" value="&lt;div&gt;Display Rod Insertion %&lt;/div&gt;&lt;div&gt;&amp;amp;&lt;/div&gt;&lt;div&gt;Display k-eff&lt;/div&gt;" style="shape=parallelogram;perimeter=parallelogramPerimeter;whiteSpace=wrap;html=1;fixedSize=1;shadow=0;strokeWidth=1;spacing=6;spacingTop=-4;" vertex="1" parent="WIyWlLk6GJQsqaUBKTNV-1">
          <mxGeometry x="242.5" y="670" width="120" height="70" as="geometry" />
        </mxCell>
        <mxCell id="_rAQOsv1yq8Gpdm-g4A3-35" style="edgeStyle=orthogonalEdgeStyle;rounded=0;orthogonalLoop=1;jettySize=auto;html=1;exitX=1;exitY=0.5;exitDx=0;exitDy=0;entryX=0;entryY=0.5;entryDx=0;entryDy=0;" edge="1" parent="WIyWlLk6GJQsqaUBKTNV-1" source="_rAQOsv1yq8Gpdm-g4A3-18" target="_rAQOsv1yq8Gpdm-g4A3-34">
          <mxGeometry relative="1" as="geometry" />
        </mxCell>
        <mxCell id="_rAQOsv1yq8Gpdm-g4A3-38" value="Yes" style="edgeLabel;html=1;align=center;verticalAlign=middle;resizable=0;points=[];" vertex="1" connectable="0" parent="_rAQOsv1yq8Gpdm-g4A3-35">
          <mxGeometry x="-0.4881" y="1" relative="1" as="geometry">
            <mxPoint x="12" y="1" as="offset" />
          </mxGeometry>
        </mxCell>
        <mxCell id="_rAQOsv1yq8Gpdm-g4A3-37" style="edgeStyle=orthogonalEdgeStyle;rounded=0;orthogonalLoop=1;jettySize=auto;html=1;exitX=0.5;exitY=1;exitDx=0;exitDy=0;entryX=0;entryY=0.5;entryDx=0;entryDy=0;" edge="1" parent="WIyWlLk6GJQsqaUBKTNV-1" source="_rAQOsv1yq8Gpdm-g4A3-18" target="_rAQOsv1yq8Gpdm-g4A3-36">
          <mxGeometry relative="1" as="geometry">
            <Array as="points">
              <mxPoint x="303" y="1025" />
            </Array>
          </mxGeometry>
        </mxCell>
        <mxCell id="_rAQOsv1yq8Gpdm-g4A3-39" value="No" style="edgeLabel;html=1;align=center;verticalAlign=middle;resizable=0;points=[];" vertex="1" connectable="0" parent="_rAQOsv1yq8Gpdm-g4A3-37">
          <mxGeometry x="0.3251" y="-1" relative="1" as="geometry">
            <mxPoint as="offset" />
          </mxGeometry>
        </mxCell>
        <mxCell id="_rAQOsv1yq8Gpdm-g4A3-18" value="Is k_eff&amp;nbsp; = 1?" style="rhombus;whiteSpace=wrap;html=1;shadow=0;fontFamily=Helvetica;fontSize=12;align=center;strokeWidth=1;spacing=6;spacingTop=-4;" vertex="1" parent="WIyWlLk6GJQsqaUBKTNV-1">
          <mxGeometry x="249" y="900" width="107" height="60" as="geometry" />
        </mxCell>
        <mxCell id="_rAQOsv1yq8Gpdm-g4A3-26" style="edgeStyle=orthogonalEdgeStyle;rounded=0;orthogonalLoop=1;jettySize=auto;html=1;exitX=1;exitY=0.5;exitDx=0;exitDy=0;" edge="1" parent="WIyWlLk6GJQsqaUBKTNV-1" source="_rAQOsv1yq8Gpdm-g4A3-20">
          <mxGeometry relative="1" as="geometry">
            <mxPoint x="440" y="820.1666666666667" as="targetPoint" />
          </mxGeometry>
        </mxCell>
        <mxCell id="_rAQOsv1yq8Gpdm-g4A3-29" value="Yes" style="edgeLabel;html=1;align=center;verticalAlign=middle;resizable=0;points=[];" vertex="1" connectable="0" parent="_rAQOsv1yq8Gpdm-g4A3-26">
          <mxGeometry x="-0.2362" y="2" relative="1" as="geometry">
            <mxPoint as="offset" />
          </mxGeometry>
        </mxCell>
        <mxCell id="_rAQOsv1yq8Gpdm-g4A3-27" style="edgeStyle=orthogonalEdgeStyle;rounded=0;orthogonalLoop=1;jettySize=auto;html=1;exitX=0.5;exitY=1;exitDx=0;exitDy=0;entryX=0.5;entryY=0;entryDx=0;entryDy=0;" edge="1" parent="WIyWlLk6GJQsqaUBKTNV-1" source="_rAQOsv1yq8Gpdm-g4A3-20" target="_rAQOsv1yq8Gpdm-g4A3-18">
          <mxGeometry relative="1" as="geometry" />
        </mxCell>
        <mxCell id="_rAQOsv1yq8Gpdm-g4A3-28" value="No" style="edgeLabel;html=1;align=center;verticalAlign=middle;resizable=0;points=[];" vertex="1" connectable="0" parent="_rAQOsv1yq8Gpdm-g4A3-27">
          <mxGeometry x="-0.0267" relative="1" as="geometry">
            <mxPoint y="-4" as="offset" />
          </mxGeometry>
        </mxCell>
        <mxCell id="_rAQOsv1yq8Gpdm-g4A3-20" value="Is k_eff&amp;nbsp; &amp;lt; 1?" style="rhombus;whiteSpace=wrap;html=1;shadow=0;fontFamily=Helvetica;fontSize=12;align=center;strokeWidth=1;spacing=6;spacingTop=-4;" vertex="1" parent="WIyWlLk6GJQsqaUBKTNV-1">
          <mxGeometry x="249" y="790" width="107" height="60" as="geometry" />
        </mxCell>
        <mxCell id="_rAQOsv1yq8Gpdm-g4A3-40" style="edgeStyle=orthogonalEdgeStyle;rounded=0;orthogonalLoop=1;jettySize=auto;html=1;exitX=1;exitY=0.5;exitDx=0;exitDy=0;" edge="1" parent="WIyWlLk6GJQsqaUBKTNV-1" source="_rAQOsv1yq8Gpdm-g4A3-33">
          <mxGeometry relative="1" as="geometry">
            <mxPoint x="640" y="680" as="targetPoint" />
          </mxGeometry>
        </mxCell>
        <mxCell id="_rAQOsv1yq8Gpdm-g4A3-33" value="&lt;div&gt;Display&lt;/div&gt;&lt;div&gt;Status: SUBCRITICAL&lt;/div&gt;" style="shape=parallelogram;perimeter=parallelogramPerimeter;whiteSpace=wrap;html=1;fixedSize=1;shadow=0;strokeWidth=1;spacing=6;spacingTop=-4;" vertex="1" parent="WIyWlLk6GJQsqaUBKTNV-1">
          <mxGeometry x="430" y="785" width="120" height="70" as="geometry" />
        </mxCell>
        <mxCell id="_rAQOsv1yq8Gpdm-g4A3-41" style="edgeStyle=orthogonalEdgeStyle;rounded=0;orthogonalLoop=1;jettySize=auto;html=1;exitX=1;exitY=0.5;exitDx=0;exitDy=0;" edge="1" parent="WIyWlLk6GJQsqaUBKTNV-1" source="_rAQOsv1yq8Gpdm-g4A3-34">
          <mxGeometry relative="1" as="geometry">
            <mxPoint x="640" y="819.9999999999998" as="targetPoint" />
          </mxGeometry>
        </mxCell>
        <mxCell id="_rAQOsv1yq8Gpdm-g4A3-34" value="&lt;div&gt;Display&lt;/div&gt;&lt;div&gt;Status: CRITICAL&lt;/div&gt;" style="shape=parallelogram;perimeter=parallelogramPerimeter;whiteSpace=wrap;html=1;fixedSize=1;shadow=0;strokeWidth=1;spacing=6;spacingTop=-4;" vertex="1" parent="WIyWlLk6GJQsqaUBKTNV-1">
          <mxGeometry x="430" y="895" width="120" height="70" as="geometry" />
        </mxCell>
        <mxCell id="_rAQOsv1yq8Gpdm-g4A3-42" style="edgeStyle=orthogonalEdgeStyle;rounded=0;orthogonalLoop=1;jettySize=auto;html=1;exitX=1;exitY=0.5;exitDx=0;exitDy=0;" edge="1" parent="WIyWlLk6GJQsqaUBKTNV-1" source="_rAQOsv1yq8Gpdm-g4A3-36">
          <mxGeometry relative="1" as="geometry">
            <mxPoint x="640" y="929.9999999999998" as="targetPoint" />
          </mxGeometry>
        </mxCell>
        <mxCell id="_rAQOsv1yq8Gpdm-g4A3-36" value="&lt;div&gt;Display&lt;/div&gt;&lt;div&gt;Status: CRITICAL&lt;/div&gt;" style="shape=parallelogram;perimeter=parallelogramPerimeter;whiteSpace=wrap;html=1;fixedSize=1;shadow=0;strokeWidth=1;spacing=6;spacingTop=-4;" vertex="1" parent="WIyWlLk6GJQsqaUBKTNV-1">
          <mxGeometry x="430" y="990" width="120" height="70" as="geometry" />
        </mxCell>
        <mxCell id="_rAQOsv1yq8Gpdm-g4A3-44" style="edgeStyle=orthogonalEdgeStyle;rounded=0;orthogonalLoop=1;jettySize=auto;html=1;exitX=0.5;exitY=0;exitDx=0;exitDy=0;exitPerimeter=0;" edge="1" parent="WIyWlLk6GJQsqaUBKTNV-1" source="_rAQOsv1yq8Gpdm-g4A3-43">
          <mxGeometry relative="1" as="geometry">
            <mxPoint x="640" y="450" as="targetPoint" />
          </mxGeometry>
        </mxCell>
        <mxCell id="_rAQOsv1yq8Gpdm-g4A3-43" value="Continue Loop" style="strokeWidth=2;html=1;shape=mxgraph.flowchart.start_2;whiteSpace=wrap;" vertex="1" parent="WIyWlLk6GJQsqaUBKTNV-1">
          <mxGeometry x="610" y="720" width="60" height="60" as="geometry" />
        </mxCell>
      </root>
    </mxGraphModel>
  </diagram>
</mxfile>
